/vscmnt/brussel_pixiu_data/_data_brussel/112/vsc11236/PredSimResults/SUBJ07opt3D/weighted-trackIG/worker_05.mot
version=1
nRows=10
nColumns=50
inDegrees=yes
endheader
                time	         pelvis_tilt	         pelvis_list	     pelvis_rotation	           pelvis_tx	           pelvis_ty	           pelvis_tz	       hip_flexion_r	     hip_adduction_r	      hip_rotation_r	        knee_angle_r	       ankle_angle_r	         mtp_angle_r	       hip_flexion_l	     hip_adduction_l	      hip_rotation_l	        knee_angle_l	       ankle_angle_l	         mtp_angle_l	    lumbar_extension	      lumbar_bending	     lumbar_rotation	 ercspn_r/activation	 intobl_r/activation	 extobl_r/activation	    abd_r/activation	    add_r/activation	hamstrings_r/activation	bifemsh_r/activation	glut_max_r/activation	iliopsoas_r/activation	rect_fem_r/activation	  vasti_r/activation	gastroc_r/activation	 soleus_r/activation	tib_ant_r/activation	 ercspn_l/activation	 intobl_l/activation	 extobl_l/activation	    abd_l/activation	    add_l/activation	hamstrings_l/activation	bifemsh_l/activation	glut_max_l/activation	iliopsoas_l/activation	rect_fem_l/activation	  vasti_l/activation	gastroc_l/activation	 soleus_l/activation	tib_ant_l/activation	
          0.00000000	         -3.58290967	          0.00682759	          9.49198676	          0.00000000	          0.84997945	         -0.01552545	         30.05367954	         -2.83029482	         -5.90253078	         -8.80331008	          2.36660265	          0.26771346	        -14.00478547	          0.29705692	          5.09914807	         -8.81954038	          9.42541589	         27.63135910	        -11.65058746	         -1.76104158	         -1.43387883	          0.12326164	          0.12680506	          0.00999999	          0.01299743	          0.17753931	          0.07559247	          0.09483324	          0.09770159	          0.04392128	          0.00999999	          0.00999999	          0.00999999	          0.00999999	          0.41465322	          0.10153712	          0.00999999	          0.00999999	          0.03607210	          0.05144819	          0.01622297	          0.17411682	          0.02019613	          0.40038720	          0.00999999	          0.00999999	          0.18367788	          0.33620439	          0.01713375	
          0.01152673	         -3.58422739	          0.08480853	          9.50369501	          0.01597201	          0.84820405	         -0.01492719	         30.05085410	         -2.65290918	         -5.62480659	        -10.68067982	          2.05590461	          0.24518382	        -14.57347597	          0.22341740	          4.77615610	         -9.75009438	          8.60958538	         29.22427810	        -11.46928508	         -1.40451461	         -1.65012458	          0.10554875	          0.12090063	          0.00999999	          0.01090285	          0.18253203	          0.06548758	          0.07955060	          0.15999698	          0.03684324	          0.00999999	          0.00999999	          0.01421130	          0.01192111	          0.44209859	          0.12409022	          0.00999999	          0.00999999	          0.03025898	          0.08794464	          0.01360860	          0.15518519	          0.01694147	          0.43341481	          0.00999999	          0.00999999	          0.15407768	          0.31918626	          0.01437260	
          0.02305346	         -3.57992771	          0.17073176	          9.46478016	          0.03215129	          0.84664724	         -0.01426680	         29.88738073	         -2.50708148	         -5.27275308	        -12.34740599	          1.71488282	          0.23829866	        -14.96225666	          0.18057151	          4.41106253	        -11.03914204	          7.67908827	         30.81829314	        -11.27987965	         -1.05043319	         -1.85954912	          0.12480821	          0.10141716	          0.00999999	          0.06625268	          0.18354314	          0.06009031	          0.09174936	          0.17573712	          0.03090585	          0.00999999	          0.00999999	          0.01192111	          0.00999999	          0.51049049	          0.14246115	          0.00999999	          0.00999999	          0.02538266	          0.08124811	          0.01141554	          0.13495133	          0.01421130	          0.37970143	          0.00999999	          0.00999999	          0.12924764	          0.29704280	          0.01205641	
          0.03458019	         -3.57163664	          0.27186266	          9.37421172	          0.04834910	          0.84543896	         -0.01350975	         29.63789002	         -2.37210472	         -4.97478046	        -13.85960598	          1.35650351	          0.21946675	        -15.11999832	          0.17525995	          4.00657793	        -12.73857526	          6.58276497	         32.39015805	        -11.10154412	         -0.71126921	         -2.05668507	          0.14074856	          0.08507350	          0.00999999	          0.11993958	          0.18766928	          0.05257861	          0.07696370	          0.19987327	          0.02592529	          0.00999999	          0.00999999	          0.00999999	          0.00999999	          0.53125670	          0.17597663	          0.00999999	          0.00999999	          0.02129218	          0.07750402	          0.01166342	          0.11320355	          0.01192111	          0.31851149	          0.00999999	          0.00999999	          0.10841902	          0.27223463	          0.01011349	
          0.04610692	         -3.56009347	          0.37965088	          9.23673394	          0.06436364	          0.84472934	         -0.01266955	         29.40256888	         -2.24616969	         -4.73848849	        -15.42661032	          1.27979762	          0.19769544	        -14.99859728	          0.19901965	          3.56738873	        -14.89049418	          5.29026549	         33.85012765	        -10.94893446	         -0.37676165	         -2.23739402	          0.14575975	          0.07136367	          0.00999999	          0.16246090	          0.20081525	          0.04669874	          0.06456079	          0.21899770	          0.02174735	          0.00999999	          0.02586649	          0.00999999	          0.00999999	          0.52557403	          0.21541258	          0.00999999	          0.00999999	          0.01786088	          0.09163746	          0.01254822	          0.10164696	          0.00999999	          0.26718248	          0.00999999	          0.00999999	          0.09094699	          0.23181198	          0.00999999	
          0.05763366	         -3.54673228	          0.48711140	          9.05431507	          0.08002458	          0.84465705	         -0.01175726	         29.22132312	         -2.12427365	         -4.55884327	        -17.09814824	          1.55756504	          0.18208551	        -14.54960833	          0.24519822	          3.09459353	        -17.54469364	          3.82250183	         34.97838524	        -10.83218020	         -0.04132720	         -2.39847704	          0.15560032	          0.05986322	          0.00999999	          0.18553520	          0.21839317	          0.04547831	          0.05415664	          0.22801309	          0.01824271	          0.00999999	          0.05985093	          0.00999999	          0.00999999	          0.47038785	          0.24266124	          0.00999999	          0.00999999	          0.01498255	          0.12782651	          0.01315839	          0.09079086	          0.00999999	          0.22412528	          0.00999999	          0.00999999	          0.07629063	          0.19445484	          0.00999999	
          0.06916039	         -3.53311278	          0.59564023	          8.82947903	          0.09528819	          0.84526906	         -0.01079546	         29.03665151	         -2.00147609	         -4.41493253	        -18.75154858	          2.18053037	          0.20653498	        -13.75049780	          0.31221750	          2.59152250	        -20.72250503	          2.23066486	         35.47772346	        -10.74614272	          0.29154122	         -2.53859319	          0.15066973	          0.05021609	          0.00999999	          0.19574893	          0.22717989	          0.04588113	          0.04542914	          0.21876645	          0.01530284	          0.00999999	          0.11820665	          0.00999999	          0.00999999	          0.39458354	          0.25946311	          0.00999999	          0.00999999	          0.01256807	          0.16556424	          0.01362159	          0.07615967	          0.00999999	          0.18800687	          0.00999999	          0.00999999	          0.06399619	          0.16311790	          0.00999999	
          0.08068712	         -3.52204549	          0.70609193	          8.56389630	          0.11016761	          0.84656509	         -0.00979963	         28.73750110	         -1.86533167	         -4.26918075	        -20.16436503	          3.04154650	          0.31972880	        -12.60064715	          0.39459113	          2.08032609	        -24.38903454	          0.46307497	         35.21419094	        -10.68154488	          0.61718067	         -2.65722854	          0.12638888	          0.04212363	          0.00999999	          0.19419170	          0.22150505	          0.05192222	          0.03810811	          0.19128832	          0.01283675	          0.00999999	          0.15690015	          0.00999999	          0.00999999	          0.33099531	          0.25984301	          0.00999999	          0.00999999	          0.01054269	          0.18005905	          0.01261594	          0.06490456	          0.00999999	          0.15770904	          0.00999999	          0.00999999	          0.05368302	          0.13683100	          0.00999999	
          0.09221385	         -3.51668946	          0.82049829	          8.25798698	          0.12466256	          0.84846859	         -0.00876600	         28.25507991	         -1.70755793	         -4.08413189	        -21.17616133	          3.91742488	          0.52060761	        -11.12525936	          0.48884467	          1.59888244	        -28.42609803	         -1.62551800	         34.24148432	        -10.63701777	          0.92761571	         -2.75493487	          0.10602096	          0.03533529	          0.00999999	          0.18716823	          0.20396039	          0.06329652	          0.03196688	          0.16046167	          0.01076807	          0.00999999	          0.19619136	          0.00999999	          0.00999999	          0.27765450	          0.24812854	          0.00999999	          0.00999999	          0.00999999	          0.19279936	          0.02118273	          0.05826553	          0.00999999	          0.13229379	          0.00999999	          0.00999999	          0.04503186	          0.11478030	          0.00999999	
          0.10374058	         -3.51936787	          0.94032159	          7.91144831	          0.13876511	          0.85085904	         -0.00770985	         27.56378792	         -1.53056013	         -3.84866207	        -21.71710782	          4.67729991	          0.79672074	         -9.36979680	          0.60033790	          1.18170936	        -32.68502916	         -4.07058521	         32.51548970	        -10.61468355	          1.22012496	         -2.83002504	          0.08893539	          0.02964091	          0.00999999	          0.18439138	          0.17818595	          0.07500379	          0.02681533	          0.13460283	          0.00999999	          0.00999999	          0.21758505	          0.00999999	          0.00999999	          0.24351844	          0.24471309	          0.00999999	          0.00999999	          0.00999999	          0.18773541	          0.04089407	          0.05429327	          0.01758226	          0.11097428	          0.00999999	          0.00999999	          0.03777485	          0.09628314	          0.03096306	
